<svg width="0" height="0" xmlns="http://www.w3.org/2000/svg">
  <symbol id="icon-home" viewBox="0 0 24 24">
    <title>Home</title>
    <g clip-path="url(#clip0_26_24)">
      <path
        d="M6 19H9.6923V13.1154H14.3077V19H18V10L12 5.46155L6 10V19ZM5 20V9.5L12 4.21152L19 9.5V20H13.3077V14.1154H10.6923V20H5Z"
      />
    </g>
    <defs>
      <clipPath id="clip0_26_24">
        <rect width="24" height="24" />
      </clipPath>
    </defs>
  </symbol>
  <symbol id="icon-settings" viewBox="0 0 24 24">
    <title>Settings</title>
    <g clip-path="url(#clip0_26_36)">
      <path
        d="M9.87692 21L9.5154 18.1077C9.19617 18.0115 8.85097 17.8603 8.47982 17.6539C8.10867 17.4474 7.79297 17.2263 7.5327 16.9904L4.8654 18.125L3 14.875L5.30577 13.1365C5.27629 12.9558 5.25193 12.7695 5.2327 12.5779C5.21347 12.3862 5.20385 12.2 5.20385 12.0192C5.20385 11.8513 5.21347 11.6747 5.2327 11.4894C5.25193 11.3042 5.27629 11.0955 5.30577 10.8635L3 9.125L4.8654 5.91345L7.51348 7.02885C7.81219 6.78013 8.13527 6.55578 8.4827 6.35578C8.83013 6.15578 9.16796 6.00128 9.49617 5.8923L9.87692 3H13.6077L13.9693 5.91153C14.3526 6.04614 14.6914 6.20063 14.9856 6.375C15.2798 6.54935 15.5827 6.7673 15.8943 7.02885L18.6193 5.91345L20.4846 9.125L18.102 10.9212C18.1571 11.1276 18.1879 11.317 18.1943 11.4894C18.2007 11.6619 18.2039 11.8321 18.2039 12C18.2039 12.1551 18.1975 12.3189 18.1846 12.4913C18.1718 12.6638 18.1423 12.8724 18.0962 13.1173L20.4404 14.875L18.575 18.125L15.8943 16.9712C15.5827 17.2327 15.2693 17.4571 14.9539 17.6442C14.6385 17.8314 14.3103 17.9795 13.9693 18.0885L13.6077 21H9.87692ZM10.7423 20H12.6981L13.0673 17.2923C13.5712 17.159 14.0247 16.976 14.4279 16.7433C14.8311 16.5106 15.2417 16.1917 15.6596 15.7866L18.1539 16.85L19.1481 15.15L16.9596 13.5058C17.043 13.2212 17.0981 12.9593 17.125 12.7202C17.1519 12.4811 17.1654 12.241 17.1654 12C17.1654 11.7462 17.1519 11.5061 17.125 11.2798C17.0981 11.0535 17.043 10.8045 16.9596 10.5327L19.1865 8.85L18.1923 7.15L15.6404 8.21922C15.3378 7.88717 14.9401 7.57596 14.4471 7.28557C13.9542 6.99519 13.4878 6.80257 13.0481 6.7077L12.7423 4H10.7481L10.4366 6.68845C9.9327 6.79615 9.46956 6.96955 9.04712 7.20865C8.62469 7.44775 8.2045 7.77627 7.78655 8.19422L5.29232 7.15L4.2981 8.85L6.46732 10.4692C6.38399 10.6936 6.32566 10.9372 6.29232 11.2C6.25899 11.4628 6.24232 11.7359 6.24232 12.0192C6.24232 12.2731 6.25899 12.525 6.29232 12.775C6.32566 13.025 6.37758 13.2686 6.4481 13.5058L4.2981 15.15L5.29232 16.85L7.76732 15.8C8.15962 16.1962 8.567 16.5138 8.98945 16.7529C9.41188 16.992 9.88784 17.1782 10.4173 17.3116L10.7423 20ZM11.7154 14.5C12.4128 14.5 13.0039 14.2577 13.4885 13.7731C13.9731 13.2885 14.2154 12.6974 14.2154 12C14.2154 11.3026 13.9731 10.7115 13.4885 10.2269C13.0039 9.74231 12.4128 9.5 11.7154 9.5C11.0141 9.5 10.4221 9.74231 9.93942 10.2269C9.45674 10.7115 9.2154 11.3026 9.2154 12C9.2154 12.6974 9.45674 13.2885 9.93942 13.7731C10.4221 14.2577 11.0141 14.5 11.7154 14.5Z"
      />
    </g>
    <defs>
      <clipPath id="clip0_26_36">
        <rect width="24" height="24" />
      </clipPath>
    </defs>
  </symbol>
  <symbol id="icon-more" viewBox="0 0 24 24">
    <circle cx="12" cy="13" r="1" />
    <circle cx="12" cy="7.5" r="1" />
    <circle cx="12" cy="18.5" r="1" />
  </symbol>
  <symbol id="collapse-all" viewBox="0 0 48 48">
    <path d="M13 6L15 4L24.5 13.5L34 4L36 6L24.5 17.5L13 6Z" fill="black" />
    <path
      d="M13 41.5L15 43.5L24.5 34L34 43.5L36 41.5L24.5 30L13 41.5Z"
      fill="black"
    />
  </symbol>
  <symbol id="open-all" viewBox="0 0 48 48">
    <path
      d="M13 15.5L15 17.5L24.5 8L34 17.5L36 15.5L24.5 4L13 15.5Z"
      fill="black"
    />
    <path
      d="M13 32L15 30L24.5 39.5L34 30L36 32L24.5 43.5L13 32Z"
      fill="black"
    />
  </symbol>
  <symbol id="icon-3-dots" viewBox="0 0 24 24">
    <title>Icon 3 Dots</title>
    <desc>Icon for 3 dots</desc>
    <circle cx="12" cy="3" r="3" />
    <circle cx="12" cy="12" r="3" />
    <circle cx="12" cy="21" r="3" />
  </symbol>
  <symbol id="icon-3-dots-3-color" viewBox="0 0 24 24">
    <title>Icon 3 Dots 3 Colors</title>
    <desc>Icon for 3 dots with 3 colors</desc>
    <circle fill="var(--svg-icon-color-1, red)" cx="12" cy="3" r="3" />
    <circle fill="var(--svg-icon-color-2, yellow)" cx="12" cy="12" r="3" />
    <circle fill="var(--svg-icon-color-3, green" cx="12" cy="21" r="3" />
  </symbol>
  <symbol id="wireframe-image-16x9" viewBox="0 0 32 18">
    <title>wireframe-image-16x9</title>
    <rect width="32" height="18" fill="#C4C4C4" />
    <path d="M9.5 8L15 15H4L9.5 8Z" fill="black" />
    <path d="M20.5 6L28 15H13L20.5 6Z" fill="black" />
    <circle cx="13.5" cy="4.5" r="1.5" fill="black" />
  </symbol>
</svg>
